<svg width="210" height="189" viewBox="0 0 210 189" fill="none"
	xmlns="http://www.w3.org/2000/svg">
	<path d="M163.778 55.8475C166.521 55.8359 169.15 54.7467 171.098 52.8146L178.524 45.3892C179.619 44.4516 180.508 43.2979 181.135 42.0004C181.763 40.7028 182.116 39.2896 182.172 37.8493C182.227 36.409 181.985 34.9727 181.459 33.6306C180.933 32.2886 180.135 31.0697 179.116 30.0504C178.097 29.0312 176.878 28.2337 175.536 27.7079C174.194 27.1821 172.758 26.9394 171.317 26.9951C169.877 27.0507 168.464 27.4035 167.166 28.0312C165.869 28.6589 164.715 29.5481 163.778 30.6429L156.875 38.0683C154.927 40.0278 153.834 42.6785 153.834 45.4415C153.834 48.2044 154.927 50.8551 156.875 52.8146C158.719 54.6486 161.18 55.7299 163.778 55.8475ZM104.583 31.375C107.357 31.375 110.017 30.2731 111.979 28.3118C113.94 26.3505 115.042 23.6904 115.042 20.9167V10.4583C115.042 7.68461 113.94 5.02449 111.979 3.06317C110.017 1.10186 107.357 0 104.583 0C101.81 0 99.1495 1.10186 97.1882 3.06317C95.2269 5.02449 94.125 7.68461 94.125 10.4583V20.9167C94.125 23.6904 95.2269 26.3505 97.1882 28.3118C99.1495 30.2731 101.81 31.375 104.583 31.375ZM20.9167 94.125H10.4583C7.68461 94.125 5.02449 95.2269 3.06317 97.1882C1.10186 99.1495 0 101.81 0 104.583C0 107.357 1.10186 110.017 3.06317 111.978C5.02449 113.94 7.68461 115.042 10.4583 115.042H20.9167C23.6904 115.042 26.3505 113.94 28.3118 111.978C30.2731 110.017 31.375 107.357 31.375 104.583C31.375 101.81 30.2731 99.1495 28.3118 97.1882C26.3505 95.2269 23.6904 94.125 20.9167 94.125ZM38.0683 52.8146C40.0163 54.7467 42.6455 55.8359 45.3892 55.8475C46.7656 55.8555 48.13 55.5916 49.4042 55.0712C50.6784 54.5507 51.8374 53.7839 52.8146 52.8146C54.7625 50.8551 55.8558 48.2044 55.8558 45.4415C55.8558 42.6785 54.7625 40.0278 52.8146 38.0683L45.3892 30.6429C43.3885 28.9296 40.8149 28.0343 38.1828 28.1359C35.5507 28.2376 33.0539 29.3287 31.1913 31.1913C29.3287 33.0539 28.2376 35.5507 28.1359 38.1828C28.0343 40.8149 28.9296 43.3885 30.6429 45.3892L38.0683 52.8146ZM198.708 94.125H188.25C185.476 94.125 182.816 95.2269 180.855 97.1882C178.894 99.1495 177.792 101.81 177.792 104.583C177.792 107.357 178.894 110.017 180.855 111.978C182.816 113.94 185.476 115.042 188.25 115.042H198.708C201.482 115.042 204.142 113.94 206.104 111.978C208.065 110.017 209.167 107.357 209.167 104.583C209.167 101.81 208.065 99.1495 206.104 97.1882C204.142 95.2269 201.482 94.125 198.708 94.125ZM94.125 167.333H62.75C59.9763 167.333 57.3162 168.435 55.3548 170.396C53.3935 172.358 52.2917 175.018 52.2917 177.792C52.2917 180.565 53.3935 183.226 55.3548 185.187C57.3162 187.148 59.9763 188.25 62.75 188.25H94.125C96.8987 188.25 99.5588 187.148 101.52 185.187C103.481 183.226 104.583 180.565 104.583 177.792C104.583 175.018 103.481 172.358 101.52 170.396C99.5588 168.435 96.8987 167.333 94.125 167.333ZM167.333 125.5H158.13C160.771 118.844 162.12 111.745 162.104 104.583C162.104 89.3279 156.044 74.6972 145.257 63.91C134.469 53.1227 119.839 47.0625 104.583 47.0625C89.3279 47.0625 74.6972 53.1227 63.91 63.91C53.1227 74.6972 47.0625 89.3279 47.0625 104.583C47.0466 111.745 48.3953 118.844 51.0367 125.5H41.8333C39.0596 125.5 36.3995 126.602 34.4382 128.563C32.4769 130.524 31.375 133.185 31.375 135.958C31.375 138.732 32.4769 141.392 34.4382 143.354C36.3995 145.315 39.0596 146.417 41.8333 146.417H167.333C170.107 146.417 172.767 145.315 174.729 143.354C176.69 141.392 177.792 138.732 177.792 135.958C177.792 133.185 176.69 130.524 174.729 128.563C172.767 126.602 170.107 125.5 167.333 125.5ZM134.39 125.5H74.7771C70.3833 119.408 68.0062 112.094 67.9792 104.583C67.9792 94.8753 71.8357 85.5649 78.7003 78.7003C85.5649 71.8357 94.8753 67.9792 104.583 67.9792C114.291 67.9792 123.602 71.8357 130.466 78.7003C137.331 85.5649 141.188 94.8753 141.188 104.583C141.161 112.094 138.783 119.408 134.39 125.5ZM146.417 167.333H135.958C133.185 167.333 130.525 168.435 128.563 170.396C126.602 172.358 125.5 175.018 125.5 177.792C125.5 180.565 126.602 183.226 128.563 185.187C130.525 187.148 133.185 188.25 135.958 188.25H146.417C149.19 188.25 151.851 187.148 153.812 185.187C155.773 183.226 156.875 180.565 156.875 177.792C156.875 175.018 155.773 172.358 153.812 170.396C151.851 168.435 149.19 167.333 146.417 167.333Z" fill="url(#paint0_linear_1_6)"/>
	<defs>
		<linearGradient id="paint0_linear_1_6" x1="0" y1="94.125" x2="209.167" y2="94.125" gradientUnits="userSpaceOnUse">
			<stop stop-color="#FF512F"/>
			<stop offset="1" stop-color="#F09819"/>
		</linearGradient>
	</defs>
</svg>
