<svg width="195" height="189" viewBox="0 0 195 189" fill="none"
	xmlns="http://www.w3.org/2000/svg">
	<path d="M152.685 55.8475C155.243 55.8359 157.694 54.7467 159.51 52.8146L166.432 45.3892C167.453 44.4516 168.282 43.2979 168.867 42.0004C169.453 40.7028 169.781 39.2896 169.833 37.8493C169.885 36.409 169.659 34.9727 169.169 33.6306C168.679 32.2886 167.935 31.0697 166.985 30.0504C166.035 29.0312 164.898 28.2337 163.647 27.7079C162.396 27.1821 161.057 26.9394 159.714 26.9951C158.371 27.0507 157.054 27.4035 155.844 28.0312C154.635 28.6589 153.559 29.5481 152.685 30.6429L146.25 38.0683C144.434 40.0278 143.415 42.6785 143.415 45.4415C143.415 48.2044 144.434 50.8551 146.25 52.8146C147.969 54.6486 150.263 55.7299 152.685 55.8475ZM97.5 31.375C100.086 31.375 102.566 30.2731 104.394 28.3118C106.223 26.3505 107.25 23.6904 107.25 20.9167V10.4583C107.25 7.68461 106.223 5.02449 104.394 3.06317C102.566 1.10186 100.086 0 97.5 0C94.9141 0 92.4342 1.10186 90.6057 3.06317C88.7772 5.02449 87.75 7.68461 87.75 10.4583V20.9167C87.75 23.6904 88.7772 26.3505 90.6057 28.3118C92.4342 30.2731 94.9141 31.375 97.5 31.375ZM19.5 94.125H9.75C7.16414 94.125 4.68419 95.2269 2.85571 97.1882C1.02723 99.1495 0 101.81 0 104.583C0 107.357 1.02723 110.017 2.85571 111.978C4.68419 113.94 7.16414 115.042 9.75 115.042H19.5C22.0859 115.042 24.5658 113.94 26.3943 111.978C28.2228 110.017 29.25 107.357 29.25 104.583C29.25 101.81 28.2228 99.1495 26.3943 97.1882C24.5658 95.2269 22.0859 94.125 19.5 94.125ZM35.49 52.8146C37.306 54.7467 39.7572 55.8359 42.315 55.8475C43.5982 55.8555 44.8702 55.5916 46.0581 55.0712C47.246 54.5507 48.3265 53.7839 49.2375 52.8146C51.0534 50.8551 52.0727 48.2044 52.0727 45.4415C52.0727 42.6785 51.0534 40.0278 49.2375 38.0683L42.315 30.6429C40.4498 28.9296 38.0506 28.0343 35.5967 28.1359C33.1429 28.2376 30.8152 29.3287 29.0788 31.1913C27.3423 33.0539 26.3251 35.5507 26.2303 38.1828C26.1355 40.8149 26.9702 43.3885 28.5675 45.3892L35.49 52.8146ZM185.25 94.125H175.5C172.914 94.125 170.434 95.2269 168.606 97.1882C166.777 99.1495 165.75 101.81 165.75 104.583C165.75 107.357 166.777 110.017 168.606 111.978C170.434 113.94 172.914 115.042 175.5 115.042H185.25C187.836 115.042 190.316 113.94 192.144 111.978C193.973 110.017 195 107.357 195 104.583C195 101.81 193.973 99.1495 192.144 97.1882C190.316 95.2269 187.836 94.125 185.25 94.125ZM87.75 167.333H58.5C55.9141 167.333 53.4342 168.435 51.6057 170.396C49.7772 172.358 48.75 175.018 48.75 177.792C48.75 180.565 49.7772 183.226 51.6057 185.187C53.4342 187.148 55.9141 188.25 58.5 188.25H87.75C90.3359 188.25 92.8158 187.148 94.6443 185.187C96.4728 183.226 97.5 180.565 97.5 177.792C97.5 175.018 96.4728 172.358 94.6443 170.396C92.8158 168.435 90.3359 167.333 87.75 167.333ZM156 125.5H147.42C149.882 118.844 151.14 111.745 151.125 104.583C151.125 89.3279 145.475 74.6972 135.419 63.91C125.362 53.1227 111.722 47.0625 97.5 47.0625C83.2778 47.0625 69.638 53.1227 59.5814 63.91C49.5248 74.6972 43.875 89.3279 43.875 104.583C43.8601 111.745 45.1176 118.844 47.58 125.5H39C36.4141 125.5 33.9342 126.602 32.1057 128.563C30.2772 130.524 29.25 133.185 29.25 135.958C29.25 138.732 30.2772 141.392 32.1057 143.354C33.9342 145.315 36.4141 146.417 39 146.417H156C158.586 146.417 161.066 145.315 162.894 143.354C164.723 141.392 165.75 138.732 165.75 135.958C165.75 133.185 164.723 130.524 162.894 128.563C161.066 126.602 158.586 125.5 156 125.5ZM125.288 125.5H69.7125C65.6163 119.408 63.4002 112.094 63.375 104.583C63.375 94.8753 66.9703 85.5649 73.37 78.7003C79.7697 71.8357 88.4495 67.9792 97.5 67.9792C106.551 67.9792 115.23 71.8357 121.63 78.7003C128.03 85.5649 131.625 94.8753 131.625 104.583C131.6 112.094 129.384 119.408 125.288 125.5ZM136.5 167.333H126.75C124.164 167.333 121.684 168.435 119.856 170.396C118.027 172.358 117 175.018 117 177.792C117 180.565 118.027 183.226 119.856 185.187C121.684 187.148 124.164 188.25 126.75 188.25H136.5C139.086 188.25 141.566 187.148 143.394 185.187C145.223 183.226 146.25 180.565 146.25 177.792C146.25 175.018 145.223 172.358 143.394 170.396C141.566 168.435 139.086 167.333 136.5 167.333Z" fill="url(#paint0_linear_1_6)"/>
	<defs>
		<linearGradient id="paint0_linear_1_6" x1="0" y1="94.125" x2="195" y2="94.125" gradientUnits="userSpaceOnUse">
			<stop stop-color="#FF512F"/>
			<stop offset="1" stop-color="#F09819"/>
		</linearGradient>
	</defs>
</svg>
